<?xml version="1.0" encoding="UTF-8"?>
<svg version="1.1" xmlns="http://www.w3.org/2000/svg" width="1280" height="720">
<path d="M0 0 C422.4 0 844.8 0 1280 0 C1280 237.6 1280 475.2 1280 720 C857.6 720 435.2 720 0 720 C0 482.4 0 244.8 0 0 Z " fill="#FEFEFE" transform="translate(0,0)"/>
<path d="M0 0 C-0.60585937 0.83660156 -1.21171875 1.67320312 -1.8359375 2.53515625 C-7.55288771 10.46396684 -13.06378754 18.50152376 -18.45019531 26.65820312 C-26.06396244 38.16281155 -33.77109773 49.6036653 -41.49765015 61.03271484 C-51.38222409 75.65515697 -61.24699049 90.28936089 -71 105 C-74.66293521 103.3325197 -77.80259006 101.11342887 -81.0859375 98.796875 C-82.27526865 97.97284152 -83.4653979 97.14995895 -84.65625 96.328125 C-86.52228366 95.03882959 -88.38309841 93.74424037 -90.23144531 92.4296875 C-92.02439549 91.1575784 -93.83393601 89.9129773 -95.6484375 88.671875 C-96.72270996 87.9200293 -97.79698242 87.16818359 -98.90380859 86.39355469 C-101.92722502 84.67489581 -101.92722502 84.67489581 -105.11816406 85.60522461 C-107.67818283 86.8442442 -110.07276144 88.10372902 -112.4609375 89.64453125 C-113.66363281 90.41313477 -113.66363281 90.41313477 -114.890625 91.19726562 C-115.71046875 91.73029297 -116.5303125 92.26332031 -117.375 92.8125 C-119.00772512 93.86081319 -120.64053678 94.90899161 -122.2734375 95.95703125 C-124.62237274 97.46843237 -126.9704934 98.98084998 -129.31347656 100.50146484 C-130.02729492 100.95859863 -130.74111328 101.41573242 -131.4765625 101.88671875 C-132.42523193 102.49906372 -132.42523193 102.49906372 -133.39306641 103.1237793 C-135 104 -135 104 -137 104 C-136.93603027 102.82606689 -136.87206055 101.65213379 -136.80615234 100.44262695 C-134.46261113 77.96395297 -134.46261113 77.96395297 -141.40625 57.875 C-145.04632184 54.98618586 -149.10200899 53.089793 -153.35839844 51.26953125 C-158.186898 48.94899542 -162.27116747 45.56729388 -166.5 42.3125 C-168.09208974 41.13966997 -169.68571052 39.96891386 -171.28125 38.80078125 C-173.36301681 37.2702027 -175.16865144 35.83134856 -177 34 C-172.65261953 32.45844059 -168.37108786 31.37840132 -163.84765625 30.484375 C-163.16368271 30.34814728 -162.47970917 30.21191956 -161.77500916 30.07156372 C-159.53825301 29.6271705 -157.30042771 29.18845187 -155.0625 28.75 C-153.49018446 28.43921727 -151.91791951 28.12817851 -150.34570312 27.81689453 C-145.56495958 26.87199334 -140.78259435 25.93548006 -136 25 C-134.58706865 24.72302348 -133.17414514 24.44600694 -131.76123047 24.16894531 C-119.32272707 21.73197011 -106.87856241 19.3334338 -94.40917969 17.05932617 C-84.22304138 15.20139906 -74.09526349 13.19925515 -63.98901367 10.94726562 C-54.46685828 8.84270456 -44.89679831 7.00099234 -35.31811523 5.17578125 C-29.44271023 4.05518974 -23.57230581 2.92554492 -17.71875 1.6953125 C-16.79280029 1.50203369 -15.86685059 1.30875488 -14.9128418 1.10961914 C-13.23566925 0.75673738 -11.55990743 0.39704927 -9.88598633 0.02905273 C-6.21357557 -0.73966685 -3.58707467 -1.0848786 0 0 Z " fill="#04A4E9" transform="translate(1086,244)"/>
<path d="M0 0 C7.54875 -0.04125 15.0975 -0.0825 22.875 -0.125 C25.23769043 -0.14320801 27.60038086 -0.16141602 30.03466797 -0.18017578 C31.93717218 -0.18602478 33.83967892 -0.19111937 35.7421875 -0.1953125 C36.70584229 -0.20554443 37.66949707 -0.21577637 38.66235352 -0.22631836 C47.67892702 -0.22860509 57.48538954 0.49679491 65 6 C72.02395062 13.43712418 72.46714485 20.19636917 72.26953125 30.0703125 C71.85379212 36.13166848 70.54207918 39.68297411 66.05859375 43.76953125 C63.08902422 46.1047176 60.60028046 47.79990651 57 49 C58.4231659 52.84939597 60.21872895 56.23343921 62.3359375 59.74609375 C63.31433594 61.37321289 63.31433594 61.37321289 64.3125 63.03320312 C64.993125 64.15662109 65.67375 65.28003906 66.375 66.4375 C67.04789063 67.55705078 67.72078125 68.67660156 68.4140625 69.83007812 C72.19805027 76.11375904 72.19805027 76.11375904 76.22509766 82.24243164 C78 85 78 85 78 87 C71.08702459 88.12633077 63.79163825 89.12108487 57 87 C52.07008512 83.05384072 49.65189961 76.99600188 47.11132812 71.36035156 C45.50339166 67.94525275 43.49743305 64.8428725 41.4375 61.6875 C39.17027465 58.08162184 37.60273733 55.00684332 36 51 C30.39 51 24.78 51 19 51 C19 62.88 19 74.76 19 87 C12.73 87 6.46 87 0 87 C0 58.29 0 29.58 0 0 Z " fill="#05A4E9" transform="translate(476,390)"/>
<path d="M0 0 C6.27 0 12.54 0 19 0 C23.50006912 9.00013824 23.50006912 9.00013824 24.99194336 12.54711914 C25.33050354 13.34842758 25.66906372 14.14973602 26.0178833 14.97532654 C26.37163025 15.82007034 26.7253772 16.66481415 27.08984375 17.53515625 C27.47122498 18.43980118 27.8526062 19.34444611 28.24554443 20.27650452 C29.47892664 23.20402935 30.70842439 26.13316479 31.9375 29.0625 C32.78671118 31.0825843 33.63607748 33.1026034 34.4855957 35.12255859 C35.7659127 38.16739951 37.04584802 41.21239767 38.32450867 44.25793457 C40.59554781 49.66632098 42.87472194 55.07106546 45.16954041 60.46940613 C46.39692642 63.35686157 47.62050778 66.24592007 48.84353638 69.13522339 C49.40349768 70.45541998 49.96522877 71.7748674 50.52877808 73.09353638 C51.29878981 74.89622484 52.06171502 76.70193548 52.82421875 78.5078125 C53.24791748 79.50441895 53.67161621 80.50102539 54.1081543 81.52783203 C55 84 55 84 55 87 C48.73 87 42.46 87 36 87 C34.35 83.04 32.7 79.08 31 75 C17.14 75 3.28 75 -11 75 C-13.475 80.94 -13.475 80.94 -16 87 C-22.6 87 -29.2 87 -36 87 C-32.62522612 76.87567837 -32.62522612 76.87567837 -31.18164062 73.53540039 C-30.85662567 72.77824234 -30.53161072 72.02108429 -30.19674683 71.24098206 C-29.85338287 70.45118454 -29.51001892 69.66138702 -29.15625 68.84765625 C-28.79040802 67.99779648 -28.42456604 67.14793671 -28.04763794 66.27232361 C-27.26929937 64.46528326 -26.48932598 62.6589463 -25.70782471 60.85327148 C-24.0779076 57.08722318 -22.45603865 53.31772699 -20.83364868 49.5484314 C-20.02480375 47.6695273 -19.21554079 45.79080311 -18.40585327 43.91226196 C-15.11914729 36.28591486 -11.8598984 28.6484699 -8.625 21 C-8.20412109 20.00750244 -7.78324219 19.01500488 -7.34960938 17.99243164 C-4.82650516 12.02292086 -2.38998609 6.02407452 0 0 Z " fill="#686868" transform="translate(1061,390)"/>
<path d="M0 0 C0.74886475 0.00523682 1.49772949 0.01047363 2.26928711 0.01586914 C3.07817383 0.0190918 3.88706055 0.02231445 4.72045898 0.02563477 C5.5705957 0.03401367 6.42073242 0.04239258 7.29663086 0.05102539 C8.15063477 0.05553711 9.00463867 0.06004883 9.88452148 0.06469727 C12.00108749 0.07652166 14.11761771 0.0944577 16.23413086 0.11352539 C21.22688425 9.36838533 25.17626904 19.00753485 29.17553711 28.71899414 C31.5082173 34.38000103 33.87723677 40.02483378 36.26147461 45.66430664 C36.78973846 46.91455627 36.78973846 46.91455627 37.32867432 48.19006348 C38.74766302 51.54773188 40.16693985 54.90527282 41.58953857 58.26141357 C45.64077031 67.82160502 49.56996646 77.39675675 53.23413086 87.11352539 C46.63413086 87.11352539 40.03413086 87.11352539 33.23413086 87.11352539 C31.58413086 83.15352539 29.93413086 79.19352539 28.23413086 75.11352539 C14.37413086 75.11352539 0.51413086 75.11352539 -13.76586914 75.11352539 C-16.24086914 81.05352539 -16.24086914 81.05352539 -18.76586914 87.11352539 C-25.36586914 87.11352539 -31.96586914 87.11352539 -38.76586914 87.11352539 C-34.26200641 75.05688873 -29.20321083 63.25629141 -24.14086914 51.42602539 C-22.79423063 48.27299665 -21.44828718 45.11967187 -20.10243225 41.96630859 C-19.21853113 39.89539497 -18.3343684 37.82459299 -17.44993591 35.75390625 C-14.96691265 29.93826086 -12.49489991 24.11823128 -10.04321289 18.28930664 C-9.77937805 17.66250504 -9.51554321 17.03570343 -9.24371338 16.38990784 C-8.07599316 13.61456412 -6.91099787 10.83811993 -5.74975586 8.06005859 C-5.35933105 7.13153076 -4.96890625 6.20300293 -4.56665039 5.24633789 C-4.23834229 4.46145996 -3.91003418 3.67658203 -3.57177734 2.86791992 C-2.32295558 0.14933974 -2.32295558 0.14933974 0 0 Z " fill="#686868" transform="translate(879.765869140625,389.886474609375)"/>
<path d="M0 0 C-2.475 2.475 -2.475 2.475 -5 5 C-5.33 4.01 -5.66 3.02 -6 2 C-12.27 3.32 -18.54 4.64 -25 6 C-25.33 7.32 -25.66 8.64 -26 10 C-25.01 10.99 -25.01 10.99 -24 12 C-25.65 12.33 -27.3 12.66 -29 13 C-29.33 13.99 -29.66 14.98 -30 16 C-32.48256011 17.39173825 -34.91033569 18.58632774 -37.5 19.75 C-38.74233398 20.3231897 -38.74233398 20.3231897 -40.00976562 20.90795898 C-43.00134504 22.28354179 -46.00046805 23.64184862 -49 25 C-50.81557458 25.82758617 -52.63113911 26.65519461 -54.44641113 27.48344421 C-60.63732117 30.30778487 -66.83313714 33.12119482 -73.03125 35.9296875 C-83.11532798 40.49990304 -93.1825938 45.10678586 -103.24829102 49.71731567 C-106.6707509 51.28492623 -110.0938447 52.85107267 -113.51953125 54.41162109 C-115.64507002 55.38165162 -117.76812918 56.35716967 -119.88671875 57.34228516 C-125.67012976 60 -125.67012976 60 -129 60 C-128.505 74.355 -128.505 74.355 -128 89 C-125.20230379 84.40215394 -125.20230379 84.40215394 -122.43652344 79.78515625 C-121.359375 78.0625 -121.359375 78.0625 -119 75 C-117.68 75 -116.36 75 -115 75 C-114.773125 75.61875 -114.54625 76.2375 -114.3125 76.875 C-112.60126315 79.64557394 -111.02892655 79.9657324 -108 81 C-106.515 81.99 -106.515 81.99 -105 83 C-106.32918914 86.98756741 -108.05029257 87.55150696 -111.609375 89.72265625 C-112.17319885 90.06880478 -112.73702271 90.41495331 -113.31793213 90.77159119 C-114.51252106 91.50261553 -115.70968265 92.22944987 -116.90917969 92.95239258 C-118.73450054 94.05315305 -120.5513329 95.16691119 -122.3671875 96.28320312 C-132.03411006 102.17989936 -132.03411006 102.17989936 -137 104 C-136.93603027 102.82606689 -136.87206055 101.65213379 -136.80615234 100.44262695 C-134.46261113 77.96395297 -134.46261113 77.96395297 -141.40625 57.875 C-145.04632184 54.98618586 -149.10200899 53.089793 -153.35839844 51.26953125 C-158.186898 48.94899542 -162.27116747 45.56729388 -166.5 42.3125 C-168.09208974 41.13966997 -169.68571052 39.96891386 -171.28125 38.80078125 C-173.36301681 37.2702027 -175.16865144 35.83134856 -177 34 C-172.65261953 32.45844059 -168.37108786 31.37840132 -163.84765625 30.484375 C-163.16368271 30.34814728 -162.47970917 30.21191956 -161.77500916 30.07156372 C-159.53825301 29.6271705 -157.30042771 29.18845187 -155.0625 28.75 C-153.49018446 28.43921727 -151.91791951 28.12817851 -150.34570312 27.81689453 C-145.56495958 26.87199334 -140.78259435 25.93548006 -136 25 C-134.58706865 24.72302348 -133.17414514 24.44600694 -131.76123047 24.16894531 C-119.32272707 21.73197011 -106.87856241 19.3334338 -94.40917969 17.05932617 C-84.22304138 15.20139906 -74.09526349 13.19925515 -63.98901367 10.94726562 C-54.46685828 8.84270456 -44.89679831 7.00099234 -35.31811523 5.17578125 C-29.44271023 4.05518974 -23.57230581 2.92554492 -17.71875 1.6953125 C-16.79280029 1.50203369 -15.86685059 1.30875488 -14.9128418 1.10961914 C-13.23566925 0.75673738 -11.55990743 0.39704927 -9.88598633 0.02905273 C-6.21357557 -0.73966685 -3.58707467 -1.0848786 0 0 Z " fill="#04A5EA" transform="translate(1086,244)"/>
<path d="M0 0 C7 0 7 0 8.95288086 1.17407227 C9.45182861 1.71604248 9.95077637 2.2580127 10.46484375 2.81640625 C11.03291748 3.41219482 11.60099121 4.0079834 12.1862793 4.62182617 C12.76418213 5.26224854 13.34208496 5.9026709 13.9375 6.5625 C15.17005719 7.86370349 16.40441526 9.16320362 17.640625 10.4609375 C18.51557617 11.39244629 18.51557617 11.39244629 19.40820312 12.34277344 C21.23926116 14.24909583 23.1628387 15.98912709 25.1875 17.6875 C28.98280539 20.89766195 32.4425016 24.4143985 35.92993164 27.94946289 C39.17153804 31.21808737 42.53035413 34.26562975 46.03125 37.25 C49.07320846 39.95396308 51.89209952 42.87030322 54.7265625 45.7890625 C57.34915827 48.33955942 60.18962825 50.65802354 63 53 C63.33 35.51 63.66 18.02 64 0 C69.94 0 75.88 0 82 0 C82 28.71 82 57.42 82 87 C75 87 75 87 72.84765625 85.49609375 C72.25855469 84.81675781 71.66945313 84.13742187 71.0625 83.4375 C68.53870808 80.67196556 66.0540143 78.09771202 63.1875 75.6875 C59.79804395 72.77749549 56.63548547 69.67840058 53.5 66.5 C50.42610145 63.38420131 47.33297809 60.34122722 44 57.5 C40.66702352 54.65877415 37.573875 51.61582484 34.5 48.5 C30.16343702 44.11511877 25.69593145 39.99279733 21 36 C20.505 35.505 20.505 35.505 20 35 C19.67 52.16 19.34 69.32 19 87 C12.73 87 6.46 87 0 87 C0 58.29 0 29.58 0 0 Z " fill="#06A5EA" transform="translate(564,390)"/>
<path d="M0 0 C7 0 7 0 9.04467773 1.26586914 C9.58552002 1.84973389 10.1263623 2.43359863 10.68359375 3.03515625 C11.29678467 3.67606201 11.90997559 4.31696777 12.54174805 4.97729492 C13.48014526 6.00947144 13.48014526 6.00947144 14.4375 7.0625 C15.76386441 8.45740536 17.09196729 9.85065992 18.421875 11.2421875 C19.04642578 11.90444336 19.67097656 12.56669922 20.31445312 13.24902344 C22.17882785 15.1857696 24.12545727 16.96335502 26.1875 18.6875 C30.22183974 22.08900214 33.86957894 25.84315101 37.57446289 29.59399414 C40.91982368 32.96476676 44.36698961 36.13234967 47.98828125 39.20703125 C51.41810398 42.26390238 54.59377543 45.57572269 57.80078125 48.86328125 C60.00578065 51.1352713 60.00578065 51.1352713 63 53 C63.33 35.51 63.66 18.02 64 0 C69.94 0 75.88 0 82 0 C82 28.71 82 57.42 82 87 C75 87 75 87 73.06640625 85.71484375 C72.57011719 85.12832031 72.07382812 84.54179687 71.5625 83.9375 C69.2127379 81.32665323 66.8740271 78.95324575 64.1875 76.6875 C60.97666245 73.92381971 57.97732835 71.01380404 55 68 C52.10408042 65.06881809 49.19757429 62.23596826 46.0625 59.5625 C42.71075086 56.698278 39.59440865 53.63668921 36.5 50.5 C32.68076716 46.63833124 28.79922534 42.94849605 24.65625 39.4375 C23.03703274 38.03214162 21.51606344 36.51606344 20 35 C19.67 52.16 19.34 69.32 19 87 C12.73 87 6.46 87 0 87 C0 58.29 0 29.58 0 0 Z " fill="#07A5E8" transform="translate(200,390)"/>
<path d="M0 0 C6.27 0 12.54 0 19 0 C19 11.55 19 23.1 19 35 C33.19 35 47.38 35 62 35 C62 23.45 62 11.9 62 0 C67.94 0 73.88 0 80 0 C80 28.71 80 57.42 80 87 C74.06 87 68.12 87 62 87 C62 75.12 62 63.24 62 51 C47.48 51 32.96 51 18 51 C18 62.88 18 74.76 18 87 C12.06 87 6.12 87 0 87 C0 58.29 0 29.58 0 0 Z " fill="#676767" transform="translate(746,390)"/>
<path d="M0 0 C22.44 0 44.88 0 68 0 C68 5.28 68 10.56 68 16 C51.5 16 35 16 18 16 C18 22.27 18 28.54 18 35 C30.21 35 42.42 35 55 35 C55 40.28 55 45.56 55 51 C42.79 51 30.58 51 18 51 C18 57.6 18 64.2 18 71 C34.17 71 50.34 71 67 71 C67 76.28 67 81.56 67 87 C44.89 87 22.78 87 0 87 C0 58.29 0 29.58 0 0 Z " fill="#07A3E6" transform="translate(390,390)"/>
<path d="M0 0 C4.49456053 2.7540542 4.49456053 2.7540542 6.26171875 4.5390625 C6.26171875 8.5390625 6.26171875 8.5390625 4.07421875 10.8984375 C2.68203125 12.08179688 2.68203125 12.08179688 1.26171875 13.2890625 C-0.13046875 14.48789062 -0.13046875 14.48789062 -1.55078125 15.7109375 C-2.27265625 16.31421875 -2.99453125 16.9175 -3.73828125 17.5390625 C-5.74551167 16.54218296 -7.74088514 15.53764969 -9.7109375 14.46875 C-15.72680323 11.43270561 -21.04407181 10.65824547 -27.73828125 11.5390625 C-31.18956797 12.87113808 -33.14824206 13.94902331 -35.73828125 16.5390625 C-35.90505407 20.12250226 -35.90505407 20.12250226 -35.73828125 23.5390625 C-30.53950269 26.55251379 -25.85660382 28.73257318 -19.86328125 29.5390625 C-10.52027857 30.8377038 -1.0040572 34.17372141 5.26171875 41.5390625 C9.58270277 47.39496324 10.25158683 53.42243201 9.26171875 60.5390625 C7.07508576 68.69187292 0.54127509 74.04968677 -6.51171875 78.15234375 C-17.67959092 83.24822372 -31.65446276 83.49469474 -43.36328125 79.9140625 C-49.76362715 77.35937898 -56.84239244 74.38289571 -60.73828125 68.5390625 C-57.10828125 64.9090625 -53.47828125 61.2790625 -49.73828125 57.5390625 C-47.73357183 58.54141721 -45.72879941 59.54397009 -43.73828125 60.57421875 C-42.74828125 61.08275391 -42.74828125 61.08275391 -41.73828125 61.6015625 C-40.74828125 62.11396484 -40.74828125 62.11396484 -39.73828125 62.63671875 C-32.04164743 66.10922346 -23.33685182 65.13172561 -15.515625 62.5859375 C-13.23300434 61.24144885 -12.67325482 59.98401838 -11.73828125 57.5390625 C-11.1547762 55.08196875 -11.1547762 55.08196875 -11.73828125 52.5390625 C-15.87226717 47.10797574 -19.92910442 46.49620937 -26.30078125 45.5390625 C-37.20269637 43.60295966 -47.37567264 41.74479999 -54.46875 32.51171875 C-57.70024735 27.49046902 -58.45036486 22.43098015 -57.73828125 16.5390625 C-55.63435094 9.60846854 -51.46342918 3.90689329 -45.3046875 -0.0078125 C-30.52779642 -7.65490986 -14.67363401 -7.82872913 0 0 Z " fill="#686868" transform="translate(720.73828125,395.4609375)"/>
<path d="M0 0 C26.07 0 52.14 0 79 0 C79 5.28 79 10.56 79 16 C69.1 16 59.2 16 49 16 C49 39.43 49 62.86 49 87 C43.06 87 37.12 87 31 87 C31 63.57 31 40.14 31 16 C20.77 16 10.54 16 0 16 C0 10.72 0 5.44 0 0 Z " fill="#06A4E8" transform="translate(297,390)"/>
<path d="M0 0 C5.94 0 11.88 0 18 0 C18 23.43 18 46.86 18 71 C34.17 71 50.34 71 67 71 C67 76.28 67 81.56 67 87 C44.89 87 22.78 87 0 87 C0 58.29 0 29.58 0 0 Z " fill="#666666" transform="translate(947,390)"/>
<path d="M0 0 C6.27 0 12.54 0 19 0 C19 28.71 19 57.42 19 87 C12.73 87 6.46 87 0 87 C0 58.29 0 29.58 0 0 Z " fill="#01A4EB" transform="translate(163,390)"/>
<path d="M0 0 C0.99 0.495 0.99 0.495 2 1 C1.19671265 1.51046875 1.19671265 1.51046875 0.37719727 2.03125 C-19.25474569 14.50940835 -38.88360318 26.99219662 -58.37402344 39.69067383 C-63.34039501 42.92555149 -68.31978231 46.13724734 -73.33203125 49.30078125 C-75.46460555 50.65900939 -77.58418075 52.03280938 -79.69921875 53.41796875 C-80.65948975 54.04396973 -80.65948975 54.04396973 -81.63916016 54.68261719 C-82.89776321 55.50379257 -84.15405207 56.3285286 -85.40771484 57.15722656 C-89.77596958 60 -89.77596958 60 -92 60 C-92.24621094 60.68449219 -92.49242187 61.36898437 -92.74609375 62.07421875 C-94.22227454 65.5186406 -96.08602794 68.64095182 -98.0625 71.8125 C-98.42666016 72.40998047 -98.79082031 73.00746094 -99.16601562 73.62304688 C-100.08006254 75.10140371 -101.03635975 76.55348068 -102 78 C-102.33 78 -102.66 78 -103 78 C-103 67.77 -103 57.54 -103 47 C-98.936875 45.185 -94.87375 43.37 -90.6875 41.5 C-77.56664133 35.62766386 -64.48703508 29.66761295 -51.41870117 23.67944336 C-42.86477155 19.76076002 -34.30036097 15.86846989 -25.70532227 12.04052734 C-21.6560842 10.22815066 -17.64196595 8.3581568 -13.6484375 6.42578125 C-12.76542969 5.99966553 -11.88242188 5.5735498 -10.97265625 5.13452148 C-9.28156946 4.3145669 -7.59385829 3.48760137 -5.91015625 2.65258789 C-3.96756037 1.70959851 -1.98653631 0.84651119 0 0 Z " fill="#F0FCFD" transform="translate(1060,257)"/>
<path d="M0 0 C4.00229288 -0.06922608 8.00304204 -0.12884797 12.00561523 -0.16479492 C13.36441117 -0.17979409 14.72315941 -0.20020038 16.08178711 -0.22631836 C30.38799973 -0.49426432 30.38799973 -0.49426432 36 3 C38.33909307 6.5086396 38.41291057 7.87089433 38 12 C36.67801118 15.0614478 35.80567094 16.58154724 32.82739258 18.12841797 C29.41005166 19.18185956 26.5246573 19.22574176 22.94921875 19.1953125 C22.29041214 19.1924826 21.63160553 19.18965271 20.95283508 19.18673706 C18.86419938 19.17560924 16.77600444 19.15051948 14.6875 19.125 C13.26498018 19.11496059 11.8424536 19.10583642 10.41992188 19.09765625 C6.94631127 19.07740196 3.47364461 19.03824196 0 19 C0 12.73 0 6.46 0 0 Z " fill="#FCFEFD" transform="translate(494,406)"/>
<path d="M0 0 C2.51659977 3.06934722 4.00815521 6.075917 5.48046875 9.75390625 C5.92197266 10.85541016 6.36347656 11.95691406 6.81835938 13.09179688 C7.27017578 14.23712891 7.72199219 15.38246094 8.1875 16.5625 C8.65091797 17.71169922 9.11433594 18.86089844 9.59179688 20.04492188 C13 28.61311441 13 28.61311441 13 32 C4.42 32 -4.16 32 -13 32 C-12.16771339 27.83856697 -11.17009945 24.7143157 -9.53125 20.859375 C-9.04269531 19.70695312 -8.55414062 18.55453125 -8.05078125 17.3671875 C-7.53902344 16.17351562 -7.02726562 14.97984375 -6.5 13.75 C-5.98824219 12.54085938 -5.47648437 11.33171875 -4.94921875 10.0859375 C-1.13940191 1.13940191 -1.13940191 1.13940191 0 0 Z " fill="#FAFAFA" transform="translate(1071,414)"/>
<path d="M0 0 C2.51659977 3.06934722 4.00815521 6.075917 5.48046875 9.75390625 C5.92197266 10.85541016 6.36347656 11.95691406 6.81835938 13.09179688 C7.27017578 14.23712891 7.72199219 15.38246094 8.1875 16.5625 C8.65091797 17.71169922 9.11433594 18.86089844 9.59179688 20.04492188 C13 28.61311441 13 28.61311441 13 32 C4.42 32 -4.16 32 -13 32 C-9.6241368 21.87241039 -9.6241368 21.87241039 -7.7734375 17.59765625 C-7.3815625 16.68822266 -6.9896875 15.77878906 -6.5859375 14.84179688 C-6.18632813 13.92462891 -5.78671875 13.00746094 -5.375 12.0625 C-4.96765625 11.11826172 -4.5603125 10.17402344 -4.140625 9.20117188 C-1.20076885 2.4015377 -1.20076885 2.4015377 0 0 Z " fill="#FAFAFA" transform="translate(887,414)"/>
<path d="M0 0 C5.94 0 11.88 0 18 0 C18 28.71 18 57.42 18 87 C15.69 87 13.38 87 11 87 C8.5625 84.5 8.5625 84.5 7 82 C7.53625 82.309375 8.0725 82.61875 8.625 82.9375 C11.49767085 84.3427092 11.49767085 84.3427092 17 85 C17 57.28 17 29.56 17 1 C11.72 1 6.44 1 1 1 C1 18.82 1 36.64 1 55 C-0.98 55.495 -0.98 55.495 -3 56 C-4.3045656 58.99615946 -4.3045656 58.99615946 -5 62 C-5.99 61.67 -6.98 61.34 -8 61 C-8.33 61.99 -8.66 62.98 -9 64 C-9.66 62.68 -10.32 61.36 -11 60 C-10.52695318 64.25742137 -8.1136178 66.25705098 -5 69 C-3.515 69.495 -3.515 69.495 -2 70 C-0.3125 71.4375 -0.3125 71.4375 1 73 C1 73.66 1 74.32 1 75 C1.66 75 2.32 75 3 75 C3 75.99 3 76.98 3 78 C-0.08218479 76.63060942 -2.15126286 75.07748256 -4.49609375 72.6640625 C-5.13740234 72.01179688 -5.77871094 71.35953125 -6.43945312 70.6875 C-7.09880859 70.006875 -7.75816406 69.32625 -8.4375 68.625 C-13.47187285 63.41134219 -13.47187285 63.41134219 -18.97265625 58.7109375 C-19.64167969 58.14632812 -20.31070313 57.58171875 -21 57 C-21 56.01 -21 55.02 -21 54 C-20.34 54 -19.68 54 -19 54 C-19 53.34 -19 52.68 -19 52 C-18.34 52 -17.68 52 -17 52 C-16.67 51.34 -16.34 50.68 -16 50 C-15.67 50.66 -15.34 51.32 -15 52 C-14.67 51.34 -14.34 50.68 -14 50 C-12.68 50 -11.36 50 -10 50 C-9.67 49.34 -9.34 48.68 -9 48 C-5.35446828 49.2808625 -3.83328987 50.16671013 -1 53 C-0.67 35.51 -0.34 18.02 0 0 Z " fill="#08A5E8" transform="translate(628,390)"/>
<path d="M0 0 C6.27 0 12.54 0 19 0 C19 28.71 19 57.42 19 87 C12.73 87 6.46 87 0 87 C0 58.29 0 29.58 0 0 Z M2 1 C2 28.72 2 56.44 2 85 C6.95 85 11.9 85 17 85 C17 57.28 17 29.56 17 1 C12.05 1 7.1 1 2 1 Z " fill="#37ADDE" transform="translate(163,390)"/>
<path d="M0 0 C1.9375 0.8125 1.9375 0.8125 4 2 C4.33 2.99 4.66 3.98 5 5 C7.39068734 6.10636395 7.39068734 6.10636395 10 7 C10.99 7.66 11.98 8.32 13 9 C11.66753648 12.99739057 9.92893749 13.55583796 6.35546875 15.72265625 C5.50617546 16.24187904 5.50617546 16.24187904 4.63972473 16.77159119 C2.82714484 17.87673919 1.00741957 18.96949058 -0.8125 20.0625 C-2.02715532 20.80197503 -3.24135376 21.54220108 -4.45507812 22.28320312 C-14.00036235 28.08775789 -14.00036235 28.08775789 -18 30 C-17.34 28.02 -16.68 26.04 -16 24 C-15.34 24 -14.68 24 -14 24 C-13.78472656 23.19175781 -13.56945312 22.38351562 -13.34765625 21.55078125 C-11.61779831 16.99298164 -9.12968233 13.23094414 -6.4375 9.1875 C-5.67663086 8.02444336 -5.67663086 8.02444336 -4.90039062 6.83789062 C-1.18849649 1.18849649 -1.18849649 1.18849649 0 0 Z " fill="#65696B" transform="translate(968,318)"/>
<path d="M0 0 C0.33 0 0.66 0 1 0 C1.07449251 4.44739413 1.12876257 8.8944519 1.16479492 13.34228516 C1.17982543 14.85341727 1.20025564 16.36450618 1.22631836 17.87548828 C1.26295689 20.05512187 1.27978338 22.23417575 1.29296875 24.4140625 C1.31653442 26.37786865 1.31653442 26.37786865 1.34057617 28.38134766 C0.9765967 32.24866211 -0.04858416 34.67336493 -2 38 C-2.66 38 -3.32 38 -4 38 C-4.12375 38.61875 -4.2475 39.2375 -4.375 39.875 C-5 42 -5 42 -7 44 C-7.02505615 42.76846191 -7.0501123 41.53692383 -7.07592773 40.26806641 C-7.16992612 35.70952507 -7.27016515 31.15113882 -7.37231445 26.59277344 C-7.41569203 24.61787538 -7.457365 22.64293913 -7.49731445 20.66796875 C-7.55494873 17.8332161 -7.6186627 14.99865622 -7.68359375 12.1640625 C-7.70030624 11.27756012 -7.71701874 10.39105774 -7.73423767 9.47769165 C-7.71085211 5.10074845 -7.71085211 5.10074845 -9 1 C-7.700625 1.020625 -6.40125 1.04125 -5.0625 1.0625 C-3.70834367 1.08399454 -2.35243917 1.07148199 -1 1 C-0.67 0.67 -0.34 0.34 0 0 Z " fill="#2EA3D4" transform="translate(956,304)"/>
<path d="M0 0 C-9.28228214 4.60935243 -18.90662978 7.78952819 -28.75 10.9375 C-29.5664801 11.20079102 -30.38296021 11.46408203 -31.22418213 11.73535156 C-43.62879734 15.73114337 -56.07132797 19.3583782 -68.73828125 22.43701172 C-71.97044715 23.24156424 -75.16949676 24.15829278 -78.375 25.0625 C-93.69025426 29.17652993 -110.07682536 33.27935394 -126 33 C-126 32.67 -126 32.34 -126 32 C-125.1020874 31.82984375 -124.2041748 31.6596875 -123.27905273 31.484375 C-88.64383035 24.87001725 -55.18029514 15.73325928 -21.5078125 5.29296875 C-20.58087585 5.00572433 -19.65393921 4.71847992 -18.69891357 4.42253113 C-17.37672821 4.01071342 -17.37672821 4.01071342 -16.02783203 3.59057617 C-15.18899475 3.32949066 -14.35015747 3.06840515 -13.48590088 2.79940796 C-10.22995661 1.75237194 -7.00951095 0.60958727 -3.79464722 -0.55717468 C-2 -1 -2 -1 0 0 Z " fill="#757575" transform="translate(937,347)"/>
<path d="M0 0 C7.54875 -0.04125 15.0975 -0.0825 22.875 -0.125 C25.23769043 -0.14320801 27.60038086 -0.16141602 30.03466797 -0.18017578 C31.93717218 -0.18602478 33.83967892 -0.19111937 35.7421875 -0.1953125 C36.70584229 -0.20554443 37.66949707 -0.21577637 38.66235352 -0.22631836 C47.64879011 -0.22859745 57.52610359 0.47442701 65 6 C67.2554022 8.51564091 69.17852758 11.1573991 71 14 C70.67 14.66 70.34 15.32 70 16 C69.01 15.34 68.02 14.68 67 14 C67 12.68 67 11.36 67 10 C65.35 10 63.7 10 62 10 C61.505 8.515 61.505 8.515 61 7 C50.49477305 -0.5274569 34.08559356 1.57137922 21.75 1.375 C11.47875 1.189375 11.47875 1.189375 1 1 C1 28.72 1 56.44 1 85 C6.28 85 11.56 85 17 85 C17 73.78 17 62.56 17 51 C17.33 51 17.66 51 18 51 C18 62.88 18 74.76 18 87 C12.06 87 6.12 87 0 87 C0 58.29 0 29.58 0 0 Z " fill="#31A8DA" transform="translate(476,390)"/>
<path d="M0 0 C16.5 0 33 0 50 0 C50 0.66 50 1.32 50 2 C34.16 2 18.32 2 2 2 C2.33 3.65 2.66 5.3 3 7 C2.67 10.3 2.34 13.6 2 17 C13.55 17 25.1 17 37 17 C37 17.66 37 18.32 37 19 C24.79 19 12.58 19 0 19 C0 12.73 0 6.46 0 0 Z " fill="#CAF2FB" transform="translate(408,406)"/>
<path d="M0 0 C5.94 0 11.88 0 18 0 C18 28.71 18 57.42 18 87 C15.69 87 13.38 87 11 87 C8.5625 84.5 8.5625 84.5 7 82 C7.804375 82.4640625 7.804375 82.4640625 8.625 82.9375 C11.49767085 84.3427092 11.49767085 84.3427092 17 85 C17 57.28 17 29.56 17 1 C11.72 1 6.44 1 1 1 C1 18.82 1 36.64 1 55 C-0.32 55 -1.64 55 -3 55 C-2.67 54.01 -2.34 53.02 -2 52 C-1.67 52.33 -1.34 52.66 -1 53 C-0.67 35.51 -0.34 18.02 0 0 Z " fill="#1F9DD3" transform="translate(628,390)"/>
<path d="M0 0 C9.57 0 19.14 0 29 0 C29 0.33 29 0.66 29 1 C23.51730931 2.15664737 18.19660726 2.11416255 12.625 2.0625 C11.69816406 2.05798828 10.77132813 2.05347656 9.81640625 2.04882812 C7.54424272 2.03711594 5.27211273 2.01918294 3 2 C2.67 6.95 2.34 11.9 2 17 C12.23 17 22.46 17 33 17 C29.32070555 19.45286296 27.52622093 19.23228878 23.14453125 19.1953125 C22.48289474 19.1924826 21.82125824 19.18965271 21.13957214 19.18673706 C19.03036263 19.17555918 16.92158075 19.15045981 14.8125 19.125 C13.38086552 19.11496707 11.94922436 19.10584176 10.51757812 19.09765625 C7.01142222 19.07733071 3.5061887 19.03817991 0 19 C0 12.73 0 6.46 0 0 Z " fill="#C2F0FA" transform="translate(494,406)"/>
<path d="M0 0 C0.33 0 0.66 0 1 0 C1 28.71 1 57.42 1 87 C7.27 87 13.54 87 20 87 C20 87.66 20 88.32 20 89 C13.4 89 6.8 89 0 89 C-1.60521153 85.78957694 -1.07827535 82.30855849 -1.02172852 78.78662109 C-1.01212097 77.9377684 -1.00251343 77.08891571 -0.99261475 76.21434021 C-0.95955887 73.40062333 -0.91925168 70.58705854 -0.87890625 67.7734375 C-0.85461157 65.82573996 -0.83076769 63.87803675 -0.80735779 61.93032837 C-0.74445197 56.79774528 -0.67540375 51.66526229 -0.60510254 46.53277588 C-0.53447772 41.29793872 -0.46962576 36.06303045 -0.40429688 30.828125 C-0.2752008 20.55200519 -0.13961958 10.27598184 0 0 Z " fill="#DBFEFE" transform="translate(162,390)"/>
<path d="M0 0 C1.32 0 2.64 0 4 0 C4 10.23 4 20.46 4 31 C3.34 31 2.68 31 2 31 C2 31.99 2 32.98 2 34 C1.34 34 0.68 34 0 34 C0 22.78 0 11.56 0 0 Z " fill="#02A5ED" transform="translate(951,307)"/>
<path d="M0 0 C11.88 0 23.76 0 36 0 C36 0.33 36 0.66 36 1 C25.11 1 14.22 1 3 1 C2.34 6.28 1.68 11.56 1 17 C16.84 17 32.68 17 49 17 C49 17.33 49 17.66 49 18 C32.83 18 16.66 18 0 18 C0 12.06 0 6.12 0 0 Z " fill="#EEFEFF" transform="translate(409,442)"/>
<path d="M0 0 C-2.71309153 2.71309153 -4.99425102 2.84568426 -8.73828125 3.65625 C-9.41489304 3.80404907 -10.09150482 3.95184814 -10.78862 4.10412598 C-12.22786254 4.41687149 -13.66790039 4.7259756 -15.10864258 5.03173828 C-17.26773391 5.49048838 -19.42398775 5.96096485 -21.58007812 6.43359375 C-44.51648569 11.41111821 -44.51648569 11.41111821 -55 11 C-55 10.67 -55 10.34 -55 10 C-54.02353516 9.80889648 -53.04707031 9.61779297 -52.04101562 9.42089844 C-48.33494846 8.69442831 -44.62998518 7.96245055 -40.92529297 7.22900391 C-39.33736202 6.91538195 -37.74915506 6.60315347 -36.16064453 6.29248047 C-33.84588979 5.83949807 -31.53205228 5.38221605 -29.21875 4.921875 C-28.45344971 4.76964478 -27.68814941 4.61741455 -26.8996582 4.46057129 C-20.2737544 3.11364677 -13.75939549 1.43472512 -7.24023438 -0.35449219 C-4.26030201 -0.94814357 -2.78055943 -1.08326688 0 0 Z " fill="#919191" transform="translate(866,369)"/>
<path d="M0 0 C2.43584906 0.94727464 4.74910506 1.85103113 7 3.1875 C8.99166048 4.21049891 8.99166048 4.21049891 11.1875 3.5625 C15.22196013 2.75560797 18.9568001 3.42743357 23 4 C22.23596585 7.47153381 20.91813089 9.99770818 19 13 C14.83254947 10.99155549 11.08988143 8.50346992 7.25 5.9375 C6.55261719 5.47794922 5.85523438 5.01839844 5.13671875 4.54492188 C3.40546579 3.3913179 1.70014226 2.19898092 0 1 C0 0.67 0 0.34 0 0 Z " fill="#14A3E1" transform="translate(996,336)"/>
<path d="M0 0 C0 0.66 0 1.32 0 2 C-2.81119304 2.6520027 -5.62375031 3.29670121 -8.4375 3.9375 C-9.22060547 4.11990234 -10.00371094 4.30230469 -10.81054688 4.49023438 C-16.20058734 5.71020238 -21.49766112 6.47675456 -27 7 C-27.33 7.99 -27.66 8.98 -28 10 C-27.01 10.33 -26.02 10.66 -25 11 C-25.33 11.99 -25.66 12.98 -26 14 C-28.97 12.02 -31.94 10.04 -35 8 C-34.67 7.34 -34.34 6.68 -34 6 C-31.19604492 5.22216797 -31.19604492 5.22216797 -27.48046875 4.4921875 C-26.49799919 4.29666794 -26.49799919 4.29666794 -25.49568176 4.09719849 C-24.10688953 3.82260171 -22.7172622 3.55220063 -21.3269043 3.28564453 C-19.20488003 2.87833598 -17.08579034 2.457919 -14.96679688 2.03515625 C-4.6072809 0 -4.6072809 0 0 0 Z " fill="#2BA4D8" transform="translate(944,271)"/>
<path d="M0 0 C1.98 1.65 3.96 3.3 6 5 C5.35125916 5.40277664 4.70251831 5.80555328 4.03411865 6.22053528 C1.8419888 7.79719206 1.8419888 7.79719206 1.48101807 10.06913757 C1.47213562 10.8618959 1.46325317 11.65465424 1.45410156 12.47143555 C1.43438293 13.37214279 1.41466431 14.27285004 1.39434814 15.20085144 C1.39311951 16.16968765 1.39189087 17.13852386 1.390625 18.13671875 C1.37408875 19.13129593 1.35755249 20.12587311 1.34051514 21.15058899 C1.2919005 24.32962129 1.27063406 27.5081748 1.25 30.6875 C1.22185163 32.84182114 1.19192581 34.99611984 1.16015625 37.15039062 C1.08613839 42.43350643 1.0345749 47.71648684 1 53 C0.67 53 0.34 53 0 53 C0 35.51 0 18.02 0 0 Z " fill="#E7FEFE" transform="translate(219,424)"/>
<path d="M0 0 C3.45615321 3.26198024 5.74238196 7.05668643 8.25 11.0625 C8.72179687 11.79533203 9.19359375 12.52816406 9.6796875 13.28320312 C10.12054687 13.98509766 10.56140625 14.68699219 11.015625 15.41015625 C11.42071289 16.05090088 11.82580078 16.69164551 12.24316406 17.35180664 C12.61779785 18.16766235 12.61779785 18.16766235 13 19 C12.67 19.66 12.34 20.32 12 21 C10.68 21 9.36 21 8 21 C7.896875 20.401875 7.79375 19.80375 7.6875 19.1875 C7.18310695 16.94732532 7.18310695 16.94732532 5.55859375 15.671875 C3.60706854 13.57850961 3.12702967 11.81030071 2.375 9.0625 C2.13523437 8.20785156 1.89546875 7.35320312 1.6484375 6.47265625 C1.08354674 4.31858487 0.53183232 2.1624503 0 0 Z M2 16 C2.33 16.99 2.66 17.98 3 19 C2.01 19.33 1.02 19.66 0 20 C0 19.01 0 18.02 0 17 C0.66 16.67 1.32 16.34 2 16 Z " fill="#0DA4E2" transform="translate(538,451)"/>
<path d="M0 0 C-1.65 1.65 -3.3 3.3 -5 5 C-5.495 3.515 -5.495 3.515 -6 2 C-6.68513672 2.15146484 -7.37027344 2.30292969 -8.07617188 2.45898438 C-11.21563012 3.14792693 -14.35772102 3.82404464 -17.5 4.5 C-19.11648438 4.85771484 -19.11648438 4.85771484 -20.765625 5.22265625 C-26.64276708 6.47692438 -31.9907487 7.29171123 -38 7 C-38 6.67 -38 6.34 -38 6 C-33.23344668 4.97353926 -28.46463106 3.95864632 -23.69335938 2.9543457 C-22.07094228 2.61115456 -20.44918585 2.26482445 -18.828125 1.9152832 C-16.49646358 1.4130902 -14.16265097 0.9222735 -11.828125 0.43359375 C-10.74352997 0.19617714 -10.74352997 0.19617714 -9.63702393 -0.04603577 C-6.15540103 -0.76354526 -3.37730719 -1.31806672 0 0 Z " fill="#30A6D7" transform="translate(1086,244)"/>
<path d="M0 0 C0.99 0 1.98 0 3 0 C3.433125 1.3921875 3.433125 1.3921875 3.875 2.8125 C4.8875 6.09791667 4.8875 6.09791667 7 9 C9.93597539 9.38384509 12.68027373 9.603843 15.625 9.6875 C16.82769531 9.73874023 16.82769531 9.73874023 18.0546875 9.79101562 C20.03596318 9.87356878 22.01796037 9.93845916 24 10 C24.33 9.01 24.66 8.02 25 7 C25.66 8.65 26.32 10.3 27 12 C8.0752613 13.63883295 8.0752613 13.63883295 3.26953125 9.84375 C1.39198145 6.6171459 0 3.77732744 0 0 Z " fill="#1AA0D9" transform="translate(527,465)"/>
<path d="M0 0 C7 6 7 6 8 8 C5.50638429 6.79618552 3.31856917 5.54571278 1 4 C1 19.84 1 35.68 1 52 C0.67 52 0.34 52 0 52 C0 34.84 0 17.68 0 0 Z " fill="#E2FEFF" transform="translate(583,424)"/>
<path d="M0 0 C-1.11375 0.474375 -2.2275 0.94875 -3.375 1.4375 C-5.26710994 2.25306463 -7.15712709 3.07856355 -9 4 C-9 4.66 -9 5.32 -9 6 C-9.66 6 -10.32 6 -11 6 C-11 5.34 -11 4.68 -11 4 C-12.485 4.2165625 -12.485 4.2165625 -14 4.4375 C-20.68866708 5.38709945 -27.22670653 6.27646096 -34 6 C-34 5.67 -34 5.34 -34 5 C-29.9375 4.1875 -25.875 3.375 -21.8125 2.5625 C-20.66201172 2.33240234 -19.51152344 2.10230469 -18.32617188 1.86523438 C-16.17163086 1.43432617 -14.01708984 1.00341797 -11.86254883 0.57250977 C-9.995412 0.1990824 -8.13161595 -0.19158388 -6.2722168 -0.60180664 C-3.83142591 -1.02954167 -2.32981787 -0.77660596 0 0 Z " fill="#26A6DA" transform="translate(1020,257)"/>
<path d="M0 0 C8.72717616 -0.65590468 14.64454147 1.06479968 21.875 5.9375 C24.14562531 8.14134221 25.64556451 10.1406362 27 13 C26.67 13.66 26.34 14.32 26 15 C25.01 14.34 24.02 13.68 23 13 C23 11.68 23 10.36 23 9 C21.35 9 19.7 9 18 9 C17.67 8.01 17.34 7.02 17 6 C13.36508353 3.2950982 10.13185991 2.44740856 5.6875 1.8125 C4.61886719 1.65394531 3.55023437 1.49539063 2.44921875 1.33203125 C1.64097656 1.22246094 0.83273437 1.11289062 0 1 C0 0.67 0 0.34 0 0 Z " fill="#25A3DA" transform="translate(520,391)"/>
<path d="M0 0 C1.75994274 3.16789693 2.24872886 5.24364431 3 9 C-0.63 10.98 -4.26 12.96 -8 15 C-7.34 13.02 -6.68 11.04 -6 9 C-5.34 9 -4.68 9 -4 9 C-3.71125 8.071875 -3.4225 7.14375 -3.125 6.1875 C-2 3 -2 3 0 0 Z " fill="#5C707B" transform="translate(958,333)"/>
<path d="M0 0 C0.66 0 1.32 0 2 0 C2 0.66 2 1.32 2 2 C3.65 1.67 5.3 1.34 7 1 C4.69 4.63 2.38 8.26 0 12 C-0.66 10.68 -1.32 9.36 -2 8 C-2.66 8 -3.32 8 -4 8 C-2.25 2.25 -2.25 2.25 0 0 Z " fill="#0EA4E1" transform="translate(1068,258)"/>
<path d="M0 0 C3 2 3 2 3.39872742 3.83499146 C3.40983047 4.57667572 3.42093353 5.31835999 3.43237305 6.08251953 C3.45216721 6.92324005 3.47196136 7.76396057 3.49235535 8.63015747 C3.49874527 9.53853363 3.50513519 10.44690979 3.51171875 11.3828125 C3.52966995 12.31221649 3.54762115 13.24162048 3.56611633 14.19918823 C3.62039848 17.17441233 3.6541722 20.14947443 3.6875 23.125 C3.72065729 25.13934556 3.75514544 27.15366968 3.79101562 29.16796875 C3.87613515 34.11186256 3.94286061 39.05570682 4 44 C3.34 44 2.68 44 2 44 C1.97494385 42.88028809 1.9498877 41.76057617 1.92407227 40.60693359 C1.82959986 36.4359272 1.7294778 32.26507193 1.62768555 28.09423828 C1.58448689 26.29219102 1.54280176 24.4901068 1.50268555 22.68798828 C1.44461624 20.09135825 1.3810292 17.4949117 1.31640625 14.8984375 C1.29969376 14.0982016 1.28298126 13.2979657 1.26576233 12.47348022 C1.1543063 8.2246447 0.82246917 4.18551925 0 0 Z " fill="#DDFDFE" transform="translate(946,305)"/>
<path d="M0 0 C0 0.66 0 1.32 0 2 C-2.05078125 2.22786458 -4.1015625 2.45572917 -6.15234375 2.68359375 C-8.01140229 2.81886614 -8.01140229 2.81886614 -9 4 C-10.55587743 4.29643736 -12.12235187 4.53780894 -13.69140625 4.75390625 C-14.63564453 4.88603516 -15.57988281 5.01816406 -16.55273438 5.15429688 C-18.04256836 5.35635742 -18.04256836 5.35635742 -19.5625 5.5625 C-20.55958984 5.70107422 -21.55667969 5.83964844 -22.58398438 5.98242188 C-25.05549716 6.32535906 -27.52748545 6.66437454 -30 7 C-30 6.34 -30 5.68 -30 5 C-25.93910105 4.15873388 -21.87604526 3.32838113 -17.8125 2.5 C-16.66201172 2.26152344 -15.51152344 2.02304687 -14.32617188 1.77734375 C-13.21435547 1.55175781 -12.10253906 1.32617188 -10.95703125 1.09375 C-9.93585205 0.88427734 -8.91467285 0.67480469 -7.86254883 0.45898438 C-5.18075268 0.02898209 -2.70948135 -0.08705161 0 0 Z " fill="#29A4D8" transform="translate(976,265)"/>
<path d="M0 0 C0.66 0.33 1.32 0.66 2 1 C-0.78687098 2.84070559 -3.58025127 4.67128178 -6.375 6.5 C-7.1690625 7.02464844 -7.963125 7.54929687 -8.78125 8.08984375 C-9.54179688 8.58613281 -10.30234375 9.08242188 -11.0859375 9.59375 C-11.7876709 10.05458984 -12.4894043 10.51542969 -13.21240234 10.99023438 C-15 12 -15 12 -17 12 C-17 11.34 -17 10.68 -17 10 C-17.66 9.67 -18.32 9.34 -19 9 C-15.88112823 7.46635461 -12.75402378 5.95031107 -9.625 4.4375 C-8.73554687 3.99986328 -7.84609375 3.56222656 -6.9296875 3.11132812 C-6.07890625 2.70205078 -5.228125 2.29277344 -4.3515625 1.87109375 C-3.56604004 1.48880615 -2.78051758 1.10651855 -1.97119141 0.71264648 C-1.32069824 0.47747314 -0.67020508 0.2422998 0 0 Z " fill="#CAF9FE" transform="translate(1060,257)"/>
<path d="M0 0 C3.24271506 0.5590888 4.93057424 1.4132178 7 4 C7 4.66 7 5.32 7 6 C6.01 6 5.02 6 4 6 C3.67 6.99 3.34 7.98 3 9 C1.68 8.67 0.36 8.34 -1 8 C-1 8.66 -1 9.32 -1 10 C-1.66 10 -2.32 10 -3 10 C-2.44077537 6.64465223 -1.60405971 3.99424479 0 1 C0 0.67 0 0.34 0 0 Z " fill="#01A5ED" transform="translate(610,434)"/>
<path d="M0 0 C0.64165788 5.26159459 -0.79422999 7.68592849 -3.90625 11.6796875 C-4.2671875 12.11539062 -4.628125 12.55109375 -5 13 C-6 10 -6 10 -5.375 8.0625 C-4.73229047 5.85660365 -4.73229047 5.85660365 -6.4375 3.75 C-6.953125 3.1725 -7.46875 2.595 -8 2 C-1.125 0 -1.125 0 0 0 Z " fill="#0EA2E1" transform="translate(1081,245)"/>
<path d="M0 0 C-0.1875 1.875 -0.1875 1.875 -1 4 C-3.5625 5.25 -3.5625 5.25 -6 6 C-6 5.34 -6 4.68 -6 4 C-6.7425 4.350625 -7.485 4.70125 -8.25 5.0625 C-11.21122875 6.0720098 -12.12062561 5.87980884 -15 5 C-13.25447527 4.15733289 -11.5033792 3.32619962 -9.75 2.5 C-8.77546875 2.0359375 -7.8009375 1.571875 -6.796875 1.09375 C-4 0 -4 0 0 0 Z " fill="#D6F8FE" transform="translate(1043,267)"/>
<path d="M0 0 C3.3907519 1.45317939 5.41300312 3.41300312 8 6 C8.99 6.33 9.98 6.66 11 7 C12.6875 8.4375 12.6875 8.4375 14 10 C14 10.66 14 11.32 14 12 C14.66 12 15.32 12 16 12 C16 12.99 16 13.98 16 15 C11.69422496 13.33830526 8.90988145 10.16919694 5.75 6.9375 C5.19570313 6.38255859 4.64140625 5.82761719 4.0703125 5.25585938 C0 1.14043257 0 1.14043257 0 0 Z " fill="#26A3DB" transform="translate(615,453)"/>
<path d="M0 0 C4.15358254 3.43469325 7.78875342 6.63270466 11 11 C6.545 10.01 6.545 10.01 2 9 C1.34 6.03 0.68 3.06 0 0 Z " fill="#1EA5DD" transform="translate(586,405)"/>
<path d="M0 0 C1.32 0.66 2.64 1.32 4 2 C3.01 2.66 2.02 3.32 1 4 C2.44253657 7.36591866 4.33264727 9.51047079 7 12 C2.01987239 10.49087042 -1.24259942 7.44338151 -5 4 C-3.35 2.68 -1.7 1.36 0 0 Z " fill="#2997C6" transform="translate(973,314)"/>
<path d="M0 0 C4 0 4 0 5.74609375 1.64453125 C6.30425781 2.35996094 6.86242187 3.07539063 7.4375 3.8125 C9.56745715 6.42341522 10.93553708 7.96216307 13.875 9.6875 C16 11 16 11 16.8125 13.6875 C16.874375 14.450625 16.93625 15.21375 17 16 C12.07872857 11.88220146 7.48545164 7.58537506 3 3 C2.00114613 1.99885518 1.00150716 0.99849057 0 0 Z " fill="#D1F8FD" transform="translate(603,421)"/>
<path d="M0 0 C-1 2 -1 2 -3.328125 2.8515625 C-4.29234375 3.10679687 -5.2565625 3.36203125 -6.25 3.625 C-7.20390625 3.88539063 -8.1578125 4.14578125 -9.140625 4.4140625 C-11.85576635 4.97044392 -14.23920177 5.11083497 -17 5 C-16 3 -16 3 -12.91015625 1.89453125 C-11.64042969 1.53746094 -10.37070312 1.18039062 -9.0625 0.8125 C-7.79535156 0.44769531 -6.52820313 0.08289063 -5.22265625 -0.29296875 C-2 -1 -2 -1 0 0 Z " fill="#7B7B7B" transform="translate(882,364)"/>
<path d="M0 0 C-2.475 3.465 -2.475 3.465 -5 7 C-5.33 6.34 -5.66 5.68 -6 5 C-6.99 5 -7.98 5 -9 5 C-8.25 2.5625 -8.25 2.5625 -7 0 C-4.07083439 -1.32284898 -3.12177395 -1.04059132 0 0 Z " fill="#17A5E1" transform="translate(1034,321)"/>
<path d="M0 0 C0.66 0.33 1.32 0.66 2 1 C-1.04792525 6.12605611 -4.4704241 7.0854722 -9.953125 8.51953125 C-10.62859375 8.67808594 -11.3040625 8.83664062 -12 9 C-9.67350413 6.49280542 -7.17318479 4.67816399 -4.3125 2.8125 C-3.50425781 2.28269531 -2.69601562 1.75289063 -1.86328125 1.20703125 C-1.24839844 0.80871094 -0.63351562 0.41039062 0 0 Z " fill="#23A4DD" transform="translate(1004,294)"/>
<path d="M0 0 C1.98 0 3.96 0 6 0 C3.45307479 2.54692521 0.82197965 3.65768848 -2.4375 5.1875 C-4.16806641 6.01314453 -4.16806641 6.01314453 -5.93359375 6.85546875 C-9 8 -9 8 -12 7 C-10.75747321 6.15556432 -9.5056114 5.3248542 -8.25 4.5 C-7.55390625 4.0359375 -6.8578125 3.571875 -6.140625 3.09375 C-4 2 -4 2 0 2 C0 1.34 0 0.68 0 0 Z " fill="#28A4D9" transform="translate(1042,263)"/>
<path d="M0 0 C2.63884562 2.40111178 4.36413529 5.00555028 6.1875 8.0625 C6.71730469 8.94035156 7.24710938 9.81820313 7.79296875 10.72265625 C9 13 9 13 9 15 C8.34 15 7.68 15 7 15 C7 14.01 7 13.02 7 12 C6.01 12.33 5.02 12.66 4 13 C3.32942113 11.2097939 2.6636531 9.41778511 2 7.625 C1.62875 6.62726563 1.2575 5.62953125 0.875 4.6015625 C0 2 0 2 0 0 Z " fill="#1EA3DA" transform="translate(538,451)"/>
<path d="M0 0 C1.8671875 0.22265625 1.8671875 0.22265625 4 1 C5.1953125 2.99609375 5.1953125 2.99609375 6.125 5.4375 C7.52653197 9.04887035 7.52653197 9.04887035 10 12 C9.67 12.99 9.34 13.98 9 15 C7.49726004 12.68923915 5.99770448 10.37652089 4.5 8.0625 C4.07074219 7.40314453 3.64148438 6.74378906 3.19921875 6.06445312 C0 1.11328125 0 1.11328125 0 0 Z " fill="#24A3DB" transform="translate(517,450)"/>
<path d="M0 0 C-1.72601379 0.81917642 -3.4559647 1.63006016 -5.1875 2.4375 C-6.63189453 3.11619141 -6.63189453 3.11619141 -8.10546875 3.80859375 C-10.80127638 4.91820418 -13.09897589 5.72442776 -16 6 C-16.66 5.34 -17.32 4.68 -18 4 C-15.37764986 3.13683464 -12.75266548 2.28419221 -10.125 1.4375 C-9.37863281 1.19064453 -8.63226562 0.94378906 -7.86328125 0.68945312 C-2.2265625 -1.11328125 -2.2265625 -1.11328125 0 0 Z " fill="#888888" transform="translate(937,347)"/>
<path d="M0 0 C4 0 4 0 6.4375 2.375 C7.283125 3.24125 8.12875 4.1075 9 5 C11.66533035 6.319018 11.66533035 6.319018 14 7 C14 7.99 14 8.98 14 10 C10.19136032 8.65378455 7.34590149 6.94641263 4.1875 4.4375 C3.39730469 3.81746094 2.60710938 3.19742187 1.79296875 2.55859375 C0.90544922 1.78708984 0.90544922 1.78708984 0 1 C0 0.67 0 0.34 0 0 Z " fill="#26A5D8" transform="translate(922,287)"/>
<path d="M0 0 C1.12894876 0.93274109 2.25300876 1.87140122 3.375 2.8125 C4.00148438 3.33457031 4.62796875 3.85664063 5.2734375 4.39453125 C7 6 7 6 9 9 C7.68 9.33 6.36 9.66 5 10 C2.08772731 6.71195019 0.50298788 4.40114397 0 0 Z " fill="#12A1DD" transform="translate(612,430)"/>
<path d="M0 0 C0.91007813 0.10183594 1.82015625 0.20367187 2.7578125 0.30859375 C3.45648437 0.39238281 4.15515625 0.47617187 4.875 0.5625 C4.875 0.8925 4.875 1.2225 4.875 1.5625 C-4.035 3.0475 -4.035 3.0475 -13.125 4.5625 C-13.125 3.9025 -13.125 3.2425 -13.125 2.5625 C-12.17625 2.253125 -11.2275 1.94375 -10.25 1.625 C-4.08445946 -0.47128378 -4.08445946 -0.47128378 0 0 Z " fill="#CDF6FD" transform="translate(957.125,266.4375)"/>
<path d="M0 0 C1.5 1.375 1.5 1.375 3 3 C3 3.66 3 4.32 3 5 C-3.93 5 -10.86 5 -18 5 C-18 4.67 -18 4.34 -18 4 C-12.06 4 -6.12 4 0 4 C0 2.68 0 1.36 0 0 Z " fill="#3499C6" transform="translate(551,472)"/>
<path d="M0 0 C0.66 0.33 1.32 0.66 2 1 C2 1.66 2 2.32 2 3 C-1 5 -1 5 -5 5 C-5 6.65 -5 8.3 -5 10 C-5.99 9.01 -6.98 8.02 -8 7 C-7 4 -7 4 -4 2.375 C-3.01 1.92125 -2.02 1.4675 -1 1 C-0.67 0.67 -0.34 0.34 0 0 Z " fill="#D1F7FD" transform="translate(540,434)"/>
<path d="M0 0 C0.66 0.33 1.32 0.66 2 1 C2.144375 1.78375 2.28875 2.5675 2.4375 3.375 C3.05384083 6.25125721 3.77728856 7.16384707 6 9 C5.67 9.66 5.34 10.32 5 11 C2.03 8.03 -0.94 5.06 -4 2 C-2.68 1.34 -1.36 0.68 0 0 Z " fill="#1A9FDA" transform="translate(236,434)"/>
<path d="M0 0 C1.32 0.33 2.64 0.66 4 1 C2.68775452 4.93673644 1.08089673 7.22719294 -2 10 C-2.17942163 6.05272412 -2.09350689 3.4019487 0 0 Z " fill="#1AA3DF" transform="translate(1036,309)"/>
<path d="M0 0 C1.5 1.125 1.5 1.125 3 3 C3.59885798 7.5912445 2.80858753 10.32723169 0 14 C-0.66 14 -1.32 14 -2 14 C-2 13.01 -2 12.02 -2 11 C-1.34 11 -0.68 11 0 11 C1.05404945 7.01803543 0.84098656 4.01804691 0 0 Z " fill="#C0EFFD" transform="translate(529,409)"/>
<path d="M0 0 C1.06505018 3.19515053 1.27693153 3.99008996 0 7 C-2.5625 9.25 -2.5625 9.25 -5 11 C-5.66 10.67 -6.32 10.34 -7 10 C-3.535 5.05 -3.535 5.05 0 0 Z " fill="#DAF7FD" transform="translate(1047,300)"/>
<path d="M0 0 C2.97 0.33 5.94 0.66 9 1 C6.06171403 3.50298434 3.82097239 4.46930939 0 5 C0 3.35 0 1.7 0 0 Z " fill="#19A3E0" transform="translate(964,296)"/>
<path d="M0 0 C2.31 1.98 4.62 3.96 7 6 C4.3333581 7.33332095 2.83319697 6.67102033 0 6 C-0.38218767 4.34385343 -0.71395102 2.67542976 -1 1 C-0.67 0.67 -0.34 0.34 0 0 Z " fill="#1BA4D8" transform="translate(571,391)"/>
<path d="M0 0 C3.80635497 3.20760251 7.54563567 6.40746109 11 10 C8.13144287 9.91563067 6.44317685 9.41307819 4.33203125 7.4453125 C0 2.48559976 0 2.48559976 0 0 Z " fill="#DFFBFE" transform="translate(240,444)"/>
<path d="M0 0 C1.98 1.65 3.96 3.3 6 5 C5.01 5 4.02 5 3 5 C1.31201173 6.43750191 1.31201173 6.43750191 0 8 C-1.09658936 4.71023192 -0.79953138 3.28696233 0 0 Z " fill="#0FA1DD" transform="translate(597,416)"/>
<path d="M0 0 C1.9375 0.375 1.9375 0.375 4 1 C4.33 1.66 4.66 2.32 5 3 C5.99 3.33 6.98 3.66 8 4 C8.33 5.65 8.66 7.3 9 9 C7.87105124 8.06725891 6.74699124 7.12859878 5.625 6.1875 C4.99851562 5.66542969 4.37203125 5.14335937 3.7265625 4.60546875 C2 3 2 3 0 0 Z " fill="#27A4D4" transform="translate(255,457)"/>
<path d="M0 0 C0.66 0.99 1.32 1.98 2 3 C0.97159885 7.01076447 -0.95987596 9.26388836 -4 12 C-3.625 9.5625 -3.625 9.5625 -3 7 C-2.34 6.67 -1.68 6.34 -1 6 C-0.34227572 2.97065509 -0.34227572 2.97065509 0 0 Z " fill="#26A5DB" transform="translate(545,422)"/>
<path d="M0 0 C1.16959987 0.97566112 2.33561177 1.955625 3.5 2.9375 C4.1496875 3.48277344 4.799375 4.02804687 5.46875 4.58984375 C5.9740625 5.05519531 6.479375 5.52054687 7 6 C7 6.33 7 6.66 7 7 C4.69 6.67 2.38 6.34 0 6 C0.33 5.01 0.66 4.02 1 3 C0.67 2.01 0.34 1.02 0 0 Z " fill="#11A1DA" transform="translate(578,398)"/>
<path d="M0 0 C1.32 0.33 2.64 0.66 4 1 C4 1.66 4 2.32 4 3 C5.32 3 6.64 3 8 3 C7.67 4.32 7.34 5.64 7 7 C5.83040013 6.02433888 4.66438823 5.044375 3.5 4.0625 C2.8503125 3.51722656 2.200625 2.97195313 1.53125 2.41015625 C1.0259375 1.94480469 0.520625 1.47945313 0 1 C0 0.67 0 0.34 0 0 Z " fill="#2BA7DD" transform="translate(224,428)"/>
<path d="M0 0 C0.66 0 1.32 0 2 0 C3.26237731 2.52475462 3.09856404 4.31200466 3.0625 7.125 C3.05347656 8.03507812 3.04445313 8.94515625 3.03515625 9.8828125 C3.02355469 10.58148438 3.01195312 11.28015625 3 12 C2.01 12.33 1.02 12.66 0 13 C0.12568359 11.96939453 0.12568359 11.96939453 0.25390625 10.91796875 C0.35574219 10.01691406 0.45757813 9.11585938 0.5625 8.1875 C0.66691406 7.29417969 0.77132812 6.40085937 0.87890625 5.48046875 C1.15658709 2.86624428 1.15658709 2.86624428 0 0 Z " fill="#1CA1D8" transform="translate(530,409)"/>
<path d="M0 0 C0.66 0.33 1.32 0.66 2 1 C-2.95 3.97 -2.95 3.97 -8 7 C-8.66 6.34 -9.32 5.68 -10 5 C-8.38007835 4.13624104 -6.75388139 3.28424146 -5.125 2.4375 C-4.22007813 1.96183594 -3.31515625 1.48617188 -2.3828125 0.99609375 C-1.20332031 0.50302734 -1.20332031 0.50302734 0 0 Z " fill="#8BE6FE" transform="translate(1060,257)"/>
<path d="M0 0 C0.7734375 0.7115625 0.7734375 0.7115625 1.5625 1.4375 C4.66782675 3.42809407 7.36632504 3.65060818 11 4 C11 4.33 11 4.66 11 5 C7.37 5 3.74 5 0 5 C0 3.35 0 1.7 0 0 Z " fill="#D8FCFE" transform="translate(635,473)"/>
<path d="M0 0 C2.31 1.98 4.62 3.96 7 6 C6.01 6.495 6.01 6.495 5 7 C2 6 2 6 0 3 C0 2.01 0 1.02 0 0 Z " fill="#E9FEFE" transform="translate(602,442)"/>
<path d="M0 0 C1.32 0 2.64 0 4 0 C4 0.66 4 1.32 4 2 C4.99 2.33 5.98 2.66 7 3 C6.01 4.485 6.01 4.485 5 6 C3.35 4.02 1.7 2.04 0 0 Z " fill="#D0F3FD" transform="translate(253,434)"/>
<path d="M0 0 C3.26460973 1.80412643 4.88929795 2.83394693 7 6 C4.03 5.505 4.03 5.505 1 5 C0.67 3.35 0.34 1.7 0 0 Z " fill="#26A5DD" transform="translate(603,422)"/>
<path d="M0 0 C0.66 0.33 1.32 0.66 2 1 C1.34 2.32 0.68 3.64 0 5 C-1.98 5 -3.96 5 -6 5 C-2.25 1.125 -2.25 1.125 0 0 Z " fill="#1FA2E2" transform="translate(1037,273)"/>
<path d="M0 0 C2.31 1.98 4.62 3.96 7 6 C6.01 6.495 6.01 6.495 5 7 C4.01 6.67 3.02 6.34 2 6 C0.8125 2.9375 0.8125 2.9375 0 0 Z " fill="#25A2D9" transform="translate(245,427)"/>
<path d="M0 0 C2 3 2 3 2 5 C2.66 5.33 3.32 5.66 4 6 C3.01 6 2.02 6 1 6 C-1.1875 3.5 -1.1875 3.5 -3 1 C-2.01 0.67 -1.02 0.34 0 0 Z " fill="#2CA8DB" transform="translate(589,425)"/>
<path d="M0 0 C-0.33 0.66 -0.66 1.32 -1 2 C-3.9375 2.75 -3.9375 2.75 -7 3 C-7.66 2.34 -8.32 1.68 -9 1 C-2.25 -1.125 -2.25 -1.125 0 0 Z " fill="#828282" transform="translate(882,364)"/>
<path d="M0 0 C-2.62198774 2.15377564 -4.64404172 3.40072174 -8 4 C-8 3.01 -8 2.02 -8 1 C-5.29120665 -0.35439668 -2.99066732 -0.06501451 0 0 Z " fill="#1FA0DF" transform="translate(1056,259)"/>
</svg>
